<svg xmlns="http://www.w3.org/2000/svg" width="1600" height="650" viewBox="0 0 1600 650">
<defs>
    <linearGradient id="sky" x1="0" y1="0" x2="0" y2="1">
        <stop offset="0%" stop-color="#b8e1ff"/>
        <stop offset="62%" stop-color="#e9f7ff"/>
        <stop offset="100%" stop-color="#eef7ee"/>
    </linearGradient>
    <linearGradient id="ground" x1="0" y1="0" x2="0" y2="1">
        <stop offset="0%" stop-color="#a9d39d"/>
        <stop offset="100%" stop-color="#80b978"/>
    </linearGradient>
</defs>

<rect width="1600" height="650" fill="url(#sky)"/>

<ellipse cx="1310" cy="120" rx="62" ry="62" fill="#fff8de" opacity="0.93"/>

<path d="M0 410 L85 378 L180 385 L270 357 L360 380 L450 348 L555 376 L665 345 L775 372 L900 340 L1015 374 L1125 346 L1245 382 L1370 350 L1490 380 L1600 360 L1600 650 L0 650 Z"
      fill="#dce5ea"/>

<g fill="#d1dbe2">
  <rect x="95" y="335" width="44" height="95"/>
  <rect x="152" y="307" width="55" height="123"/>
  <rect x="226" y="348" width="40" height="82"/>
  <rect x="293" y="316" width="48" height="114"/>
  <rect x="357" y="350" width="42" height="80"/>
  <rect x="432" y="303" width="55" height="127"/>
  <rect x="505" y="338" width="43" height="92"/>
  <rect x="585" y="292" width="60" height="138"/>
  <rect x="663" y="333" width="46" height="97"/>
  <rect x="738" y="315" width="48" height="115"/>
  <rect x="807" y="347" width="42" height="83"/>
  <rect x="882" y="300" width="52" height="130"/>
  <rect x="954" y="338" width="43" height="92"/>
  <rect x="1029" y="312" width="48" height="118"/>
  <rect x="1096" y="346" width="41" height="84"/>
  <rect x="1166" y="305" width="55" height="125"/>
  <rect x="1238" y="336" width="43" height="94"/>
  <rect x="1312" y="309" width="48" height="121"/>
</g>

<g fill="#5ca16a">
  <circle cx="45" cy="455" r="32"/><circle cx="100" cy="447" r="37"/><circle cx="162" cy="458" r="35"/>
  <circle cx="225" cy="445" r="39"/><circle cx="293" cy="456" r="35"/><circle cx="355" cy="446" r="38"/>
  <circle cx="420" cy="455" r="35"/><circle cx="486" cy="446" r="39"/><circle cx="552" cy="456" r="35"/>
  <circle cx="620" cy="445" r="39"/><circle cx="686" cy="456" r="35"/><circle cx="753" cy="446" r="39"/>
  <circle cx="820" cy="458" r="35"/><circle cx="892" cy="446" r="39"/><circle cx="958" cy="456" r="35"/>
  <circle cx="1026" cy="446" r="39"/><circle cx="1092" cy="458" r="35"/><circle cx="1162" cy="447" r="39"/>
  <circle cx="1228" cy="456" r="35"/><circle cx="1298" cy="446" r="39"/><circle cx="1366" cy="456" r="35"/>
  <circle cx="1435" cy="447" r="39"/><circle cx="1502" cy="458" r="35"/><circle cx="1570" cy="447" r="37"/>
</g>

<rect y="475" width="1600" height="175" fill="url(#ground)"/>

<g opacity="0.98">
  <rect x="1368" y="214" width="16" height="260" fill="#c2d0d9"/>
  <polygon points="1338,214 1406,214 1388,178 1356,178" fill="#6e8798"/>
  <rect x="1360" y="166" width="30" height="12" rx="4" fill="#7b92a4"/>
</g>
</svg>
